ffmpeg started on 2025-05-24 at 15:04:18
Report written to "D:\Convert\FFMetrics\reports\ssim_report-6.txt"
Log level: 32
Command line:
ffmpeg -hide_banner -nostdin -i "G:\\\xc0\xed\xe8\xec\xe5\\\xce\xed\xe3\xee\xe8\xed\xe3\xe8\\!_33_\xc7\xe8\xec\xe0_2024\\DreamCast\\\xcd\xe5\xf0\xe0\xe7\xf3\xec\xed\xfb\xe9 \xe0\xed\xe3\xe5\xeb \xe2 \xf2\xe0\xed\xf6\xe5 \xf1 \xe4\xe5\xec\xee\xed\xee\xec\\[DC] Oroka na Tenshi wa Akuma to Odoru - 04_Telegram_HEVC.mkv" -i "G:\\\xc0\xed\xe8\xec\xe5\\\xce\xed\xe3\xee\xe8\xed\xe3\xe8\\!_33_\xc7\xe8\xec\xe0_2024\\DreamCast\\\xcd\xe5\xf0\xe0\xe7\xf3\xec\xed\xfb\xe9 \xe0\xed\xe3\xe5\xeb \xe2 \xf2\xe0\xed\xf6\xe5 \xf1 \xe4\xe5\xec\xee\xed\xee\xec\\[DC] Oroka na Tenshi wa Akuma to Odoru - 04_Telegram.mp4" -lavfi "[0:v]settb=AVTB,setpts=PTS-STARTPTS,format=pix_fmts=yuv420p10,fps=24000/1001,scale=1920:1080:flags=bicubic[main];[1:v]settb=AVTB,setpts=PTS-STARTPTS,format=pix_fmts=yuv420p,fps=24000/1001,scale=1920:1080:flags=bicubic[ref];[main][ref]ssim=eof_action=endall:stats_file='D\\:/Convert/FFMetrics/logs/ssim_logfile-6.txt'" -f null -
Input #0, matroska,webm, from 'G:\Аниме\Онгоинги\!_33_Зима_2024\DreamCast\Неразумный ангел в танце с демоном\[DC] Oroka na Tenshi wa Akuma to Odoru - 04_Telegram_HEVC.mkv':
  Metadata:
    COMPATIBLE_BRANDS: isomiso2avc1mp41
    MAJOR_BRAND     : isom
    MINOR_VERSION   : 512
    ENCODER         : Lavf61.7.100
  Duration: 00:23:46.69, start: -0.021000, bitrate: 1095 kb/s
  Stream #0:0: Video: hevc (Main 10), yuv420p10le(tv, bt709, progressive), 1920x1080 [SAR 1:1 DAR 16:9], 23.98 fps, 23.98 tbr, 1k tbn (default)
      Metadata:
        HANDLER_NAME    : VideoHandler
        VENDOR_ID       : [0][0][0][0]
        ENCODER         : Lavc61.19.100 libx265
        BPS             : 898010
        DURATION        : 00:23:46.591708333
        NUMBER_OF_FRAMES: 34204
        NUMBER_OF_BYTES : 160136771
        _STATISTICS_WRITING_APP: mkvpropedit v66.0.0 ('Josie') 64-bit
        _STATISTICS_WRITING_DATE_UTC: 2025-05-23 15:16:06
        _STATISTICS_TAGS: BPS DURATION NUMBER_OF_FRAMES NUMBER_OF_BYTES
  Stream #0:1: Audio: aac (LC), 48000 Hz, stereo, fltp (default)
      Metadata:
        HANDLER_NAME    : SoundHandler
        VENDOR_ID       : [0][0][0][0]
        ENCODER         : Lavc61.19.100 aac
        BPS             : 193693
        DURATION        : 00:23:46.688000000
        NUMBER_OF_FRAMES: 66877
        NUMBER_OF_BYTES : 34542489
        _STATISTICS_WRITING_APP: mkvpropedit v66.0.0 ('Josie') 64-bit
        _STATISTICS_WRITING_DATE_UTC: 2025-05-23 15:16:06
        _STATISTICS_TAGS: BPS DURATION NUMBER_OF_FRAMES NUMBER_OF_BYTES
Input #1, mov,mp4,m4a,3gp,3g2,mj2, from 'G:\Аниме\Онгоинги\!_33_Зима_2024\DreamCast\Неразумный ангел в танце с демоном\[DC] Oroka na Tenshi wa Akuma to Odoru - 04_Telegram.mp4':
  Metadata:
    major_brand     : isom
    minor_version   : 512
    compatible_brands: isomiso2avc1mp41
    encoder         : Lavf60.16.100
  Duration: 00:23:46.66, start: 0.000000, bitrate: 3895 kb/s
  Stream #1:0[0x1](und): Video: h264 (High) (avc1 / 0x31637661), yuv420p(tv, bt709, progressive), 1920x1080 [SAR 1:1 DAR 16:9], 3747 kb/s, 23.98 fps, 23.98 tbr, 24k tbn (default)
      Metadata:
        handler_name    : VideoHandler
        vendor_id       : [0][0][0][0]
        encoder         : Lavc60.31.102 h264_qsv
  Stream #1:1[0x2](und): Audio: aac (HE-AACv2) (mp4a / 0x6134706D), 48000 Hz, stereo, fltp, 144 kb/s (default)
      Metadata:
        handler_name    : SoundHandler
        vendor_id       : [0][0][0][0]
Stream mapping:
  Stream #0:0 (hevc) -> settb:default
  Stream #1:0 (h264) -> settb:default
  ssim:default -> Stream #0:0 (wrapped_avframe)
  Stream #0:1 -> #0:1 (aac (native) -> pcm_s16le (native))
Output #0, null, to 'pipe:':
  Metadata:
    COMPATIBLE_BRANDS: isomiso2avc1mp41
    MAJOR_BRAND     : isom
    MINOR_VERSION   : 512
    encoder         : Lavf61.7.100
  Stream #0:0: Video: wrapped_avframe, yuv420p10le(tv, bt709, progressive), 1920x1080 [SAR 1:1 DAR 16:9], q=2-31, 200 kb/s, 23.98 fps, 23.98 tbn
      Metadata:
        encoder         : Lavc61.19.100 wrapped_avframe
  Stream #0:1: Audio: pcm_s16le, 48000 Hz, stereo, s16, 1536 kb/s (default)
      Metadata:
        HANDLER_NAME    : SoundHandler
        VENDOR_ID       : [0][0][0][0]
        _STATISTICS_TAGS: BPS DURATION NUMBER_OF_FRAMES NUMBER_OF_BYTES
        BPS             : 193693
        DURATION        : 00:23:46.688000000
        NUMBER_OF_FRAMES: 66877
        NUMBER_OF_BYTES : 34542489
        _STATISTICS_WRITING_APP: mkvpropedit v66.0.0 ('Josie') 64-bit
        _STATISTICS_WRITING_DATE_UTC: 2025-05-23 15:16:06
        encoder         : Lavc61.19.100 pcm_s16le
frame=  186 fps=0.0 q=-0.0 size=N/A time=00:00:07.75 bitrate=N/A speed=15.1x    frame=  433 fps=422 q=-0.0 size=N/A time=00:00:18.05 bitrate=N/A speed=17.6x    frame=  655 fps=426 q=-0.0 size=N/A time=00:00:27.31 bitrate=N/A speed=17.8x    frame=  867 fps=420 q=-0.0 size=N/A time=00:00:36.16 bitrate=N/A speed=17.5x    frame= 1079 fps=419 q=-0.0 size=N/A time=00:00:45.00 bitrate=N/A speed=17.5x    frame= 1294 fps=420 q=-0.0 size=N/A time=00:00:53.97 bitrate=N/A speed=17.5x    frame= 1518 fps=422 q=-0.0 size=N/A time=00:01:03.31 bitrate=N/A speed=17.6x    frame= 1746 fps=424 q=-0.0 size=N/A time=00:01:12.82 bitrate=N/A speed=17.7x    frame= 1909 fps=412 q=-0.0 size=N/A time=00:01:19.62 bitrate=N/A speed=17.2x    frame= 2106 fps=409 q=-0.0 size=N/A time=00:01:27.83 bitrate=N/A speed=17.1x    frame= 2384 fps=420 q=-0.0 size=N/A time=00:01:39.43 bitrate=N/A speed=17.5x    frame= 2579 fps=417 q=-0.0 size=N/A time=00:01:47.56 bitrate=N/A speed=17.4x    frame= 2775 fps=415 q=-0.0 size=N/A time=00:01:55.74 bitrate=N/A speed=17.3x    frame= 3011 fps=417 q=-0.0 size=N/A time=00:02:05.58 bitrate=N/A speed=17.4x    frame= 3224 fps=417 q=-0.0 size=N/A time=00:02:14.46 bitrate=N/A speed=17.4x    frame= 3444 fps=418 q=-0.0 size=N/A time=00:02:23.64 bitrate=N/A speed=17.4x    frame= 3666 fps=418 q=-0.0 size=N/A time=00:02:32.90 bitrate=N/A speed=17.4x    frame= 3903 fps=421 q=-0.0 size=N/A time=00:02:42.78 bitrate=N/A speed=17.6x    frame= 4159 fps=425 q=-0.0 size=N/A time=00:02:53.46 bitrate=N/A speed=17.7x    frame= 4422 fps=429 q=-0.0 size=N/A time=00:03:04.43 bitrate=N/A speed=17.9x    frame= 4667 fps=431 q=-0.0 size=N/A time=00:03:14.65 bitrate=N/A speed=  18x    frame= 4928 fps=435 q=-0.0 size=N/A time=00:03:25.53 bitrate=N/A speed=18.1x    frame= 5156 fps=435 q=-0.0 size=N/A time=00:03:35.04 bitrate=N/A speed=18.1x    frame= 5402 fps=437 q=-0.0 size=N/A time=00:03:45.30 bitrate=N/A speed=18.2x    frame= 5620 fps=436 q=-0.0 size=N/A time=00:03:54.40 bitrate=N/A speed=18.2x    frame= 5863 fps=438 q=-0.0 size=N/A time=00:04:04.53 bitrate=N/A speed=18.3x    frame= 6106 fps=439 q=-0.0 size=N/A time=00:04:14.67 bitrate=N/A speed=18.3x    frame= 6357 fps=441 q=-0.0 size=N/A time=00:04:25.13 bitrate=N/A speed=18.4x    frame= 6626 fps=444 q=-0.0 size=N/A time=00:04:36.35 bitrate=N/A speed=18.5x    frame= 6876 fps=445 q=-0.0 size=N/A time=00:04:46.78 bitrate=N/A speed=18.5x    frame= 7127 fps=446 q=-0.0 size=N/A time=00:04:57.25 bitrate=N/A speed=18.6x    frame= 7393 fps=448 q=-0.0 size=N/A time=00:05:08.34 bitrate=N/A speed=18.7x    frame= 7627 fps=448 q=-0.0 size=N/A time=00:05:18.10 bitrate=N/A speed=18.7x    frame= 7879 fps=450 q=-0.0 size=N/A time=00:05:28.61 bitrate=N/A speed=18.8x    frame= 8104 fps=449 q=-0.0 size=N/A time=00:05:38.00 bitrate=N/A speed=18.7x    frame= 8318 fps=448 q=-0.0 size=N/A time=00:05:46.92 bitrate=N/A speed=18.7x    frame= 8566 fps=449 q=-0.0 size=N/A time=00:05:57.27 bitrate=N/A speed=18.7x    frame= 8802 fps=449 q=-0.0 size=N/A time=00:06:07.11 bitrate=N/A speed=18.7x    frame= 9065 fps=451 q=-0.0 size=N/A time=00:06:18.08 bitrate=N/A speed=18.8x    frame= 9310 fps=452 q=-0.0 size=N/A time=00:06:28.30 bitrate=N/A speed=18.8x    frame= 9550 fps=452 q=-0.0 size=N/A time=00:06:38.31 bitrate=N/A speed=18.8x    frame= 9803 fps=452 q=-0.0 size=N/A time=00:06:48.86 bitrate=N/A speed=18.9x    frame=10024 fps=452 q=-0.0 size=N/A time=00:06:58.08 bitrate=N/A speed=18.8x    frame=10238 fps=451 q=-0.0 size=N/A time=00:07:07.00 bitrate=N/A speed=18.8x    frame=10484 fps=452 q=-0.0 size=N/A time=00:07:17.27 bitrate=N/A speed=18.8x    frame=10747 fps=453 q=-0.0 size=N/A time=00:07:28.23 bitrate=N/A speed=18.9x    frame=11003 fps=454 q=-0.0 size=N/A time=00:07:38.91 bitrate=N/A speed=18.9x    frame=11219 fps=453 q=-0.0 size=N/A time=00:07:47.92 bitrate=N/A speed=18.9x    frame=11489 fps=455 q=-0.0 size=N/A time=00:07:59.18 bitrate=N/A speed=  19x    frame=11736 fps=455 q=-0.0 size=N/A time=00:08:09.48 bitrate=N/A speed=  19x    frame=12010 fps=456 q=-0.0 size=N/A time=00:08:20.91 bitrate=N/A speed=  19x    frame=12285 fps=458 q=-0.0 size=N/A time=00:08:32.38 bitrate=N/A speed=19.1x    frame=12506 fps=457 q=-0.0 size=N/A time=00:08:41.60 bitrate=N/A speed=19.1x    frame=12763 fps=458 q=-0.0 size=N/A time=00:08:52.32 bitrate=N/A speed=19.1x    frame=13037 fps=460 q=-0.0 size=N/A time=00:09:03.75 bitrate=N/A speed=19.2x    frame=13315 fps=461 q=-0.0 size=N/A time=00:09:15.34 bitrate=N/A speed=19.2x    frame=13555 fps=461 q=-0.0 size=N/A time=00:09:25.35 bitrate=N/A speed=19.2x    frame=13811 fps=462 q=-0.0 size=N/A time=00:09:36.03 bitrate=N/A speed=19.3x    frame=14091 fps=463 q=-0.0 size=N/A time=00:09:47.71 bitrate=N/A speed=19.3x    frame=14367 fps=464 q=-0.0 size=N/A time=00:09:59.22 bitrate=N/A speed=19.4x    frame=14647 fps=465 q=-0.0 size=N/A time=00:10:10.90 bitrate=N/A speed=19.4x    frame=14917 fps=466 q=-0.0 size=N/A time=00:10:22.16 bitrate=N/A speed=19.4x    frame=15161 fps=466 q=-0.0 size=N/A time=00:10:32.34 bitrate=N/A speed=19.5x    frame=15404 fps=467 q=-0.0 size=N/A time=00:10:42.47 bitrate=N/A speed=19.5x    frame=15681 fps=467 q=-0.0 size=N/A time=00:10:54.02 bitrate=N/A speed=19.5x    frame=15954 fps=468 q=-0.0 size=N/A time=00:11:05.41 bitrate=N/A speed=19.5x    frame=16211 fps=469 q=-0.0 size=N/A time=00:11:16.13 bitrate=N/A speed=19.6x    frame=16466 fps=469 q=-0.0 size=N/A time=00:11:26.76 bitrate=N/A speed=19.6x    frame=16722 fps=470 q=-0.0 size=N/A time=00:11:37.44 bitrate=N/A speed=19.6x    frame=16983 fps=470 q=-0.0 size=N/A time=00:11:48.33 bitrate=N/A speed=19.6x    frame=17286 fps=472 q=-0.0 size=N/A time=00:12:00.97 bitrate=N/A speed=19.7x    frame=17535 fps=472 q=-0.0 size=N/A time=00:12:11.35 bitrate=N/A speed=19.7x    frame=17818 fps=473 q=-0.0 size=N/A time=00:12:23.15 bitrate=N/A speed=19.7x    frame=18083 fps=474 q=-0.0 size=N/A time=00:12:34.21 bitrate=N/A speed=19.8x    frame=18324 fps=474 q=-0.0 size=N/A time=00:12:44.26 bitrate=N/A speed=19.8x    frame=18616 fps=475 q=-0.0 size=N/A time=00:12:56.44 bitrate=N/A speed=19.8x    frame=18875 fps=475 q=-0.0 size=N/A time=00:13:07.24 bitrate=N/A speed=19.8x    frame=19143 fps=476 q=-0.0 size=N/A time=00:13:18.42 bitrate=N/A speed=19.8x    frame=19423 fps=477 q=-0.0 size=N/A time=00:13:30.10 bitrate=N/A speed=19.9x    frame=19724 fps=478 q=-0.0 size=N/A time=00:13:42.65 bitrate=N/A speed=19.9x    frame=19974 fps=478 q=-0.0 size=N/A time=00:13:53.08 bitrate=N/A speed=19.9x    frame=20247 fps=479 q=-0.0 size=N/A time=00:14:04.46 bitrate=N/A speed=  20x    frame=20493 fps=479 q=-0.0 size=N/A time=00:14:14.72 bitrate=N/A speed=  20x    frame=20718 fps=478 q=-0.0 size=N/A time=00:14:24.11 bitrate=N/A speed=19.9x    frame=20970 fps=478 q=-0.0 size=N/A time=00:14:34.62 bitrate=N/A speed=19.9x    frame=21262 fps=479 q=-0.0 size=N/A time=00:14:46.80 bitrate=N/A speed=  20x    frame=21519 fps=479 q=-0.0 size=N/A time=00:14:57.52 bitrate=N/A speed=  20x    frame=21777 fps=480 q=-0.0 size=N/A time=00:15:08.28 bitrate=N/A speed=  20x    frame=22043 fps=480 q=-0.0 size=N/A time=00:15:19.37 bitrate=N/A speed=  20x    frame=22296 fps=480 q=-0.0 size=N/A time=00:15:29.92 bitrate=N/A speed=  20x    frame=22548 fps=480 q=-0.0 size=N/A time=00:15:40.43 bitrate=N/A speed=  20x    frame=22815 fps=481 q=-0.0 size=N/A time=00:15:51.57 bitrate=N/A speed=  20x    frame=23056 fps=481 q=-0.0 size=N/A time=00:16:01.62 bitrate=N/A speed=  20x    frame=23334 fps=481 q=-0.0 size=N/A time=00:16:13.22 bitrate=N/A speed=20.1x    frame=23580 fps=481 q=-0.0 size=N/A time=00:16:23.48 bitrate=N/A speed=20.1x    frame=23860 fps=482 q=-0.0 size=N/A time=00:16:35.16 bitrate=N/A speed=20.1x    frame=24129 fps=482 q=-0.0 size=N/A time=00:16:46.38 bitrate=N/A speed=20.1x    frame=24376 fps=482 q=-0.0 size=N/A time=00:16:56.68 bitrate=N/A speed=20.1x    frame=24607 fps=482 q=-0.0 size=N/A time=00:17:06.31 bitrate=N/A speed=20.1x    frame=24843 fps=482 q=-0.0 size=N/A time=00:17:16.16 bitrate=N/A speed=20.1x    frame=25124 fps=482 q=-0.0 size=N/A time=00:17:27.88 bitrate=N/A speed=20.1x    frame=25414 fps=483 q=-0.0 size=N/A time=00:17:39.97 bitrate=N/A speed=20.1x    frame=25692 fps=484 q=-0.0 size=N/A time=00:17:51.57 bitrate=N/A speed=20.2x    frame=25973 fps=484 q=-0.0 size=N/A time=00:18:03.29 bitrate=N/A speed=20.2x    frame=26249 fps=485 q=-0.0 size=N/A time=00:18:14.80 bitrate=N/A speed=20.2x    frame=26523 fps=485 q=-0.0 size=N/A time=00:18:26.23 bitrate=N/A speed=20.2x    frame=26815 fps=486 q=-0.0 size=N/A time=00:18:38.40 bitrate=N/A speed=20.3x    frame=27061 fps=486 q=-0.0 size=N/A time=00:18:48.66 bitrate=N/A speed=20.3x    frame=27325 fps=486 q=-0.0 size=N/A time=00:18:59.68 bitrate=N/A speed=20.3x    frame=27580 fps=486 q=-0.0 size=N/A time=00:19:10.31 bitrate=N/A speed=20.3x    frame=27855 fps=486 q=-0.0 size=N/A time=00:19:21.78 bitrate=N/A speed=20.3x    frame=28122 fps=487 q=-0.0 size=N/A time=00:19:32.92 bitrate=N/A speed=20.3x    frame=28395 fps=487 q=-0.0 size=N/A time=00:19:44.30 bitrate=N/A speed=20.3x    frame=28670 fps=487 q=-0.0 size=N/A time=00:19:55.77 bitrate=N/A speed=20.3x    frame=28916 fps=487 q=-0.0 size=N/A time=00:20:06.03 bitrate=N/A speed=20.3x    frame=29182 fps=488 q=-0.0 size=N/A time=00:20:17.13 bitrate=N/A speed=20.3x    frame=29436 fps=488 q=-0.0 size=N/A time=00:20:27.72 bitrate=N/A speed=20.3x    frame=29703 fps=488 q=-0.0 size=N/A time=00:20:38.86 bitrate=N/A speed=20.3x    frame=29964 fps=488 q=-0.0 size=N/A time=00:20:49.74 bitrate=N/A speed=20.4x    frame=30247 fps=489 q=-0.0 size=N/A time=00:21:01.55 bitrate=N/A speed=20.4x    frame=30520 fps=489 q=-0.0 size=N/A time=00:21:12.93 bitrate=N/A speed=20.4x    frame=30747 fps=488 q=-0.0 size=N/A time=00:21:22.40 bitrate=N/A speed=20.4x    frame=31022 fps=489 q=-0.0 size=N/A time=00:21:33.87 bitrate=N/A speed=20.4x    frame=31292 fps=489 q=-0.0 size=N/A time=00:21:45.13 bitrate=N/A speed=20.4x    frame=31564 fps=489 q=-0.0 size=N/A time=00:21:56.48 bitrate=N/A speed=20.4x    frame=31826 fps=490 q=-0.0 size=N/A time=00:22:07.40 bitrate=N/A speed=20.4x    frame=32080 fps=490 q=-0.0 size=N/A time=00:22:18.00 bitrate=N/A speed=20.4x    frame=32307 fps=489 q=-0.0 size=N/A time=00:22:27.47 bitrate=N/A speed=20.4x    frame=32522 fps=489 q=-0.0 size=N/A time=00:22:36.43 bitrate=N/A speed=20.4x    frame=32747 fps=488 q=-0.0 size=N/A time=00:22:45.82 bitrate=N/A speed=20.4x    frame=32988 fps=488 q=-0.0 size=N/A time=00:22:55.87 bitrate=N/A speed=20.4x    frame=33208 fps=488 q=-0.0 size=N/A time=00:23:05.05 bitrate=N/A speed=20.3x    frame=33451 fps=487 q=-0.0 size=N/A time=00:23:15.18 bitrate=N/A speed=20.3x    frame=33662 fps=487 q=-0.0 size=N/A time=00:23:23.98 bitrate=N/A speed=20.3x    frame=33889 fps=487 q=-0.0 size=N/A time=00:23:33.45 bitrate=N/A speed=20.3x    frame=34123 fps=486 q=-0.0 size=N/A time=00:23:43.21 bitrate=N/A speed=20.3x    [Parsed_ssim_10 @ 000001d41f2f2640] SSIM Y:0.994836 (22.870530) U:0.993955 (22.185762) V:0.993970 (22.196936) All:0.994545 (22.632137)
[out#0/null @ 000001d411e6f580] video:14697KiB audio:267508KiB subtitle:0KiB other streams:0KiB global headers:0KiB muxing overhead: unknown
frame=34204 fps=486 q=-0.0 Lsize=N/A time=00:23:46.59 bitrate=N/A speed=20.3x    
